<svg xmlns="http://www.w3.org/2000/svg" width="300" height="238" viewBox="0 0 300 238">
  <g id="Group_834" data-name="Group 834" transform="translate(-750 -228)" opacity="0.4">
    <g id="Group_833" data-name="Group 833" transform="translate(32.262 -181.043)">
      <path id="Path_447" data-name="Path 447" d="M305.263,178.088c-1.716,16.824-11.646,33.663-14.2,35.632s-7.187.9-10.384.9H27.14l-.147-.264C20.7,203.787,13.544,193.531,9.979,181.7c-9.944-32.943,21.737-55.219,42.227-76.3C63.941,93.335,64.821,76.011,74.971,63.066c13.89-17.588,37.387-26.845,59.828-28.285,25.785-1.646,47.7,7.347,63.363,27.315,12.893,16.5,20.226,42.024,40.482,51.942,7.26,3.556,15.679,4,23.541,6.024C287.838,126.675,307.9,152.168,305.263,178.088Z" transform="translate(709.643 416.669)" fill="#e5eefd" opacity="0.368"/>
      <path id="Path_448" data-name="Path 448" d="M94.04,166.166a76.551,76.551,0,0,1,10.374-.529l10.359-.088,20.733-.147H166.6a94.389,94.389,0,0,1,10.374.456,1.337,1.337,0,0,1,0,2.66,94.4,94.4,0,0,1-10.374.456H135.535l-20.733-.147H104.443a76.576,76.576,0,0,1-10.374-.544,1.029,1.029,0,0,1,0-2.042Z" transform="translate(749.262 478.065)"/>
      <path id="Path_449" data-name="Path 449" d="M70.865,166.014c3.541-.264,7.082-.367,10.623-.411a95.015,95.015,0,0,1,10.623.294,1.22,1.22,0,0,1,1.117,1.322,1.234,1.234,0,0,1-1.117,1.117,102.586,102.586,0,0,1-10.623.294c-3.541,0-7.082-.147-10.624-.411a1.117,1.117,0,0,1-1.014-1.19,1.087,1.087,0,0,1,1.014-1.014Z" transform="translate(738.453 478.142)"/>
      <ellipse id="Ellipse_133" data-name="Ellipse 133" cx="3.174" cy="3.042" rx="3.174" ry="3.042" transform="translate(754.626 409.043)" fill="#e5eefd"/>
      <ellipse id="Ellipse_134" data-name="Ellipse 134" cx="6.098" cy="5.848" rx="6.098" ry="5.848" transform="translate(947.144 487.192)" fill="#e5eefd"/>
      <ellipse id="Ellipse_135" data-name="Ellipse 135" cx="7.17" cy="6.877" rx="7.17" ry="6.877" transform="translate(870.729 422.943)" fill="#e5eefd"/>
      <ellipse id="Ellipse_136" data-name="Ellipse 136" cx="4.878" cy="4.673" rx="4.878" ry="4.673" transform="translate(981.213 506.897)" fill="#e5eefd"/>
      <ellipse id="Ellipse_137" data-name="Ellipse 137" cx="4.158" cy="3.982" rx="4.158" ry="3.982" transform="translate(978.26 440.634)" fill="#e5eefd"/>
      <ellipse id="Ellipse_138" data-name="Ellipse 138" cx="4.158" cy="3.982" rx="4.158" ry="3.982" transform="translate(916.012 418.123)" fill="#e5eefd"/>
      <path id="Path_450" data-name="Path 450" d="M28.559,77.615A7.714,7.714,0,0,0,35.8,78.747a7.259,7.259,0,0,0,2.792-2,10.447,10.447,0,0,0,1.866-9.859c-1.19-3.644-4.643-6.994-8.17-6.289-3.159.632-7.185,4.908-7.964,8.522C23.622,72.429,26.281,76.029,28.559,77.615Z" transform="translate(717.207 429.166)" fill="#e5eefd"/>
      <path id="Path_451" data-name="Path 451" d="M208.2,156.863a5.613,5.613,0,0,1,2.939-.588,10.286,10.286,0,0,1,2.939.426,1.293,1.293,0,0,1,.867,1.616,1.337,1.337,0,0,1-.867.867,10.772,10.772,0,0,1-2.939.411,5.481,5.481,0,0,1-2.939-.588,1.22,1.22,0,0,1-.485-1.66A1.19,1.19,0,0,1,208.2,156.863Z" transform="translate(802.734 473.775)" fill="#717791"/>
      <path id="Path_452" data-name="Path 452" d="M24.5,156.9c11.042-.47,22.1-.544,33.142-.529h99.425l66.3-.073H256.5c11.042,0,22.1,0,33.142.456a1.307,1.307,0,0,1,1.276,1.367,1.336,1.336,0,0,1-1.276,1.293c-11.042.4-22.1.426-33.142.441H223.361l-66.3-.088-66.283-.073H57.638c-11.042,0-22.1-.073-33.142-.529a1.134,1.134,0,0,1,0-2.263Z" transform="translate(716.874 473.795)"/>
      <path id="Path_453" data-name="Path 453" d="M20.083,156.377a1.029,1.029,0,0,1,.426,0,.27.27,0,0,1,.22.073.588.588,0,0,1,.22.132,1.807,1.807,0,0,1,0,2.557h0a.879.879,0,0,1-.22.132c-.073,0-.147.073-.22.073a1.381,1.381,0,0,1-.426,0,1.587,1.587,0,0,1-1.029-2,1.631,1.631,0,0,1,1.029-.97Z" transform="translate(714.75 473.821)" fill="#717791"/>
      <path id="Path_454" data-name="Path 454" d="M12.735,156.79a7.48,7.48,0,0,1,2.16-.411,4.409,4.409,0,0,1,2.145.294,1.337,1.337,0,0,1,.691,1.749,1.381,1.381,0,0,1-.691.691,4.07,4.07,0,0,1-2.145.294,7.479,7.479,0,0,1-2.16-.411,1.175,1.175,0,0,1,0-2.2Z" transform="translate(711.46 473.819)" fill="#717791"/>
      <path id="Path_455" data-name="Path 455" d="M127.9,84.916a20.057,20.057,0,0,0-33.266,15.09V102.8h3.615V98.125a14.576,14.576,0,0,1,29.137,0V102.8h5.5V98.125A19.954,19.954,0,0,0,127.9,84.916Z" transform="translate(750.001 438.22)" fill="#7db7ff"/>
      <rect id="Rectangle_1071" data-name="Rectangle 1071" width="49.047" height="46.167" rx="6.4" transform="translate(838.315 540.923)" fill="#fff"/>
      <path id="Path_456" data-name="Path 456" d="M139.72,99.939v38.1a2.939,2.939,0,0,1-2.939,2.939H93.009a2.939,2.939,0,0,1-2.939-2.939v-38.1A2.939,2.939,0,0,1,93.009,97h43.772A2.939,2.939,0,0,1,139.72,99.939Z" transform="translate(747.862 446.125)" fill="#b8d9ff"/>
      <path id="Path_457" data-name="Path 457" d="M137.516,97.088v34.9a2.939,2.939,0,0,1-2.939,2.939H90.8a3.056,3.056,0,0,1-.735-.1V99.939A2.939,2.939,0,0,1,93.009,97h43.772A2.94,2.94,0,0,1,137.516,97.088Z" transform="translate(747.864 446.136)" fill="#ddecfe"/>
      <line id="Line_222" data-name="Line 222" y1="0.793" transform="translate(835.833 553.864)" fill="none" stroke="#1676ee" stroke-linecap="round" stroke-linejoin="round" stroke-width="1"/>
      <path id="Path_458" data-name="Path 458" d="M142.462,132.322a3.115,3.115,0,0,1-3.115,2.939H91.74a3.13,3.13,0,0,1-3.13-3.13V109.15" transform="translate(747.178 451.813)" fill="none" stroke="#1676ee" stroke-linecap="round" stroke-linejoin="round" stroke-width="2"/>
      <line id="Line_223" data-name="Line 223" y2="14.929" transform="translate(889.604 565.073)" fill="none" stroke="#1676ee" stroke-linecap="round" stroke-linejoin="round" stroke-width="2"/>
      <path id="Path_459" data-name="Path 459" d="M88.61,105.4V98.63a3.144,3.144,0,0,1,3.13-3.13h47.607a3.144,3.144,0,0,1,3.13,3.13v11.549" transform="translate(747.178 445.474)" fill="none" stroke="#1676ee" stroke-linecap="round" stroke-linejoin="round" stroke-width="2"/>
      <path id="Path_460" data-name="Path 460" d="M103.28,109.26c0,2.7.705,4.482,3.174,5.187v7.038a1.572,1.572,0,0,0,1.572,1.572h0c.882,0,2.6-.705,2.6-1.572v-6.539a5.775,5.775,0,1,0-7.347-6.186c0,.162,0,.338,0,.5" transform="translate(754.061 449.252)" fill="#7db7ff"/>
      <path id="Path_461" data-name="Path 461" d="M107.218,121.859v.338a1.646,1.646,0,0,0,1.646,1.646h0a1.646,1.646,0,0,0,1.646-1.646v-6.833a6.039,6.039,0,1,0-7.655-6.48,6.144,6.144,0,0,0,0,.735" transform="translate(753.857 449.2)" fill="none" stroke="#1676ee" stroke-linecap="round" stroke-linejoin="round" stroke-width="2"/>
      <path id="Path_462" data-name="Path 462" d="M103.49,109.9a6.054,6.054,0,0,0,3.424,2.513v2.4" transform="translate(754.165 452.198)" fill="none" stroke="#1676ee" stroke-linecap="round" stroke-linejoin="round" stroke-width="1"/>
      <path id="Path_463" data-name="Path 463" d="M101.383,82.681l-.264.206m-1.881,1.646A20.057,20.057,0,0,0,93.36,98.727V103.4h5.5V98.727a14.576,14.576,0,0,1,29.137,0V103.4h5.5V98.727A20.086,20.086,0,0,0,113.4,78.67a19.821,19.821,0,0,0-8.14,1.734" transform="translate(749.406 437.621)" fill="none" stroke="#1676ee" stroke-linecap="round" stroke-linejoin="round" stroke-width="2"/>
      <path id="Path_464" data-name="Path 464" d="M106.556,118.062a16.251,16.251,0,1,0-8.331,6.553l2.057,2.557a5.657,5.657,0,0,0,3.042,1.969l2.939.749a.9.9,0,0,1,.647,1.043l-.647,3.306a.588.588,0,0,0,.132.529.691.691,0,0,0,.573.235l.808-.088,1.337,1.69a1.749,1.749,0,0,0,1.572.632.9.9,0,0,1,1,.926l-.088,2.424a1.646,1.646,0,0,0,.382,1.175l.911,1.146a1.763,1.763,0,0,0,1.2.647l1.851.176a.911.911,0,0,1,.808.9v2.439a1.778,1.778,0,0,0,.382,1.117l.838,1.043a3.409,3.409,0,0,0,2.307,1.264l5.084.426a1.073,1.073,0,0,0,1.131-1.22l-1.249-7.626a3.306,3.306,0,0,0-.691-1.572l-15.8-19.587M85.632,100.341a2.986,2.986,0,1,1,0-.088Z" transform="translate(741.6 444.242)" fill="#fff"/>
      <path id="Path_465" data-name="Path 465" d="M83.91,98.025a15.046,15.046,0,0,0-2.219,21.159,14.106,14.106,0,0,0,16.163,4.32l1.925,2.439a9.756,9.756,0,0,0,3.6,2.807l2.66.705a.838.838,0,0,1,.617.97l-.588,3.056a.632.632,0,0,0,.118.485.647.647,0,0,0,.544.235l.735-.088,1.264,1.572a1.6,1.6,0,0,0,1.469.6.838.838,0,0,1,.926.867V139.4a1.675,1.675,0,0,0,.367,1.087l.852,1.058a1.587,1.587,0,0,0,1.117.617l1.7.176a.852.852,0,0,1,.764.838l.735,3.2a1.675,1.675,0,0,0,.367,1.043l.779.97a3.233,3.233,0,0,0,2.131,1.19l4.7.411a.97.97,0,0,0,1.043-1.117l-.882-7.347a3.042,3.042,0,0,0-.661-1.469l-18.294-22.79a13.68,13.68,0,0,0,1.22-13.386,14.84,14.84,0,0,0-2.028-3.306A15.046,15.046,0,0,0,83.91,98.025Zm5.481,7.009a3.027,3.027,0,1,1,0,.044Z" transform="translate(742.395 445.087)" fill="#ddecfe"/>
      <path id="Path_466" data-name="Path 466" d="M99.426,101a13.68,13.68,0,0,1-1.22,13.386l9.668,12.108A14.694,14.694,0,0,1,99.426,101Z" transform="translate(750.018 448.019)" fill="#a6cfff"/>
      <path id="Path_467" data-name="Path 467" d="M125.3,143.154l-.176-1.014a3.306,3.306,0,0,0-.691-1.572l-15.649-19.587M77.028,105.553a16.266,16.266,0,0,0,21.144,19.1l2.057,2.557a5.657,5.657,0,0,0,3.042,1.969l2.939.749a.9.9,0,0,1,.647,1.043l-.647,3.306a.588.588,0,0,0,.132.529.691.691,0,0,0,.573.235l.808-.088,1.337,1.69a1.749,1.749,0,0,0,1.572.632.9.9,0,0,1,1,.926l-.088,2.424a1.646,1.646,0,0,0,.382,1.176l.911,1.146a1.763,1.763,0,0,0,1.2.647l1.851.176a.911.911,0,0,1,.808.9v2.439a1.778,1.778,0,0,0,.382,1.117l.838,1.043a3.409,3.409,0,0,0,2.307,1.264l5.084.426a1.073,1.073,0,0,0,1.131-1.22l-.514-3.115M78.512,101.63c-.088.162-.176.338-.25.5m28.315,16A16.251,16.251,0,0,0,83.067,96.3m8.816,6.553a3.85,3.85,0,0,1-6.818,2.939,4.32,4.32,0,0,1-.456-.735m-.264-2.586a3.85,3.85,0,0,1,7.538.455" transform="translate(741.58 444.173)" fill="none" stroke="#1676ee" stroke-linecap="round" stroke-linejoin="round" stroke-width="2"/>
      <path id="Path_468" data-name="Path 468" d="M90.93,115.071a15.736,15.736,0,0,0,3.2-1.381" transform="translate(748.304 453.969)" fill="none" stroke="#1676ee" stroke-linecap="round" stroke-linejoin="round" stroke-width="2"/>
      <line id="Line_224" data-name="Line 224" x2="0.514" y2="0.632" transform="translate(863.129 588.01)" fill="none" stroke="#1676ee" stroke-linecap="round" stroke-linejoin="round" stroke-width="2"/>
      <line id="Line_225" data-name="Line 225" x2="4.291" y2="5.363" transform="translate(854.223 576.86)" fill="none" stroke="#1676ee" stroke-linecap="round" stroke-linejoin="round" stroke-width="2"/>
      <line id="Line_226" data-name="Line 226" x2="6.979" y2="8.728" transform="translate(845.259 565.64)" fill="none" stroke="#1676ee" stroke-linecap="round" stroke-linejoin="round" stroke-width="2"/>
      <path id="Path_469" data-name="Path 469" d="M97.107,108.1a12.519,12.519,0,0,1-3.042,3.512,12.2,12.2,0,0,1-4.276,2.219" transform="translate(747.769 451.358)" fill="none" stroke="#91c2ff" stroke-linecap="round" stroke-linejoin="round" stroke-width="2"/>
      <path id="Path_470" data-name="Path 470" d="M95.91,103.85v.735" transform="translate(750.631 449.383)" fill="none" stroke="#91c2ff" stroke-linecap="round" stroke-linejoin="round" stroke-width="2"/>
      <path id="Path_471" data-name="Path 471" d="M91.27,96.25a12.49,12.49,0,0,1,6.642,9.066" transform="translate(748.46 445.83)" fill="none" stroke="#91c2ff" stroke-linecap="round" stroke-linejoin="round" stroke-width="2"/>
      <path id="Path_472" data-name="Path 472" d="M81.6,111.567A12.4,12.4,0,0,1,78.87,104" transform="translate(742.675 449.444)" fill="none" stroke="#91c2ff" stroke-linecap="round" stroke-linejoin="round" stroke-width="2"/>
      <path id="Path_473" data-name="Path 473" d="M86.187,112.29a4.233,4.233,0,0,1-1.117-.25" transform="translate(745.571 453.201)" fill="none" stroke="#91c2ff" stroke-linecap="round" stroke-linejoin="round" stroke-width="2"/>
      <path id="Path_474" data-name="Path 474" d="M180.107,110.188s-7.185-41.362-55.5-45.55c0,0-32.488-3.835-54.219,31.973" transform="translate(738.626 431.007)" fill="none" stroke="#1ba177" stroke-linecap="round" stroke-width="5"/>
      <path id="Path_475" data-name="Path 475" d="M66.95,77.25l1.543,19.175L86.83,89.549" transform="translate(738.562 434.778)" fill="none" stroke="#1ba177" stroke-linecap="round" stroke-width="5"/>
      <path id="Path_476" data-name="Path 476" d="M67.31,115.17s11.652,37.513,48.033,42.229c0,0,41.23,6.627,61.831-32.679" transform="translate(737.193 454.491)" fill="none" stroke="#1ba177" stroke-linecap="round" stroke-width="5"/>
      <path id="Path_477" data-name="Path 477" d="M132.42,125.11l18.058-7.67,2.292,18.734" transform="translate(765.875 457.876)" fill="none" stroke="#1ba177" stroke-linecap="round" stroke-width="5"/>
    </g>
  </g>
</svg>
